# xmcd
#
# Track frame offsets:
#	150
#	15743
#	31077
#	44916
#	61508
#	71348
#	85928
#	104943
#	124969
#	137464
#	153366
#	169956
#	189767
#
# Disc length: 2770 seconds
# Revision: 0
# Processed by: cddbd v1.5.1PL0 Copyright (c) Steve Scherf et al.
# Submitted via: cdrLabel 7.0
#
DISCID=ab0ad00d
DTITLE=Kenny " Blues Boss " Wayne - Kenny "Blues Boss" Wayne - Let It Loose
DTITLE=
DYEAR=2005
DGENRE=
TTITLE0=Blackberry Wine
TTITLE1=Joogie To The Boogie
TTITLE2=Wishing Well
TTITLE3=I Never Will Forgive You
TTITLE4=Blue and Lonesome
TTITLE5=Let Me Go Home Whiskey
TTITLE6=Let It Loose
TTITLE7=Mean Streak
TTITLE8=Bewildered
TTITLE9=Be A Man
TTITLE10=Lies
TTITLE11=Don't Rush To Judge Me
TTITLE12=Blues Carry Me Home
EXTD=
EXTT0=
EXTT1=
EXTT2=
EXTT3=
EXTT4=
EXTT5=
EXTT6=
EXTT7=
EXTT8=
EXTT9=
EXTT10=
EXTT11=
EXTT12=
PLAYORDER=
